# Blender 4.0.2
# www.blender.org
mtllib portal_egypt.mtl
o Plane
v -0.900000 0.000000 -0.000000
v 0.900000 0.000000 -0.000000
v -0.900000 3.000000 0.000000
v 0.900000 3.000000 0.000000
v -0.900000 3.000000 0.300000
v -0.900000 0.000000 0.300000
v 0.900000 0.000000 0.300000
v 0.900000 3.000000 0.300000
v -1.400000 3.000000 0.000000
v -1.400000 0.000000 -0.000000
v -1.400000 3.000000 0.300000
v -1.400000 0.000000 0.300000
v 1.400000 0.000000 -0.000000
v 1.400000 3.000000 0.000000
v 1.400000 0.000000 0.300000
v 1.400000 3.000000 0.300000
v 1.000000 3.500000 0.000000
v -1.000000 3.500000 0.000000
v -1.400000 3.500000 0.000000
v 1.400000 3.500000 0.000000
v -1.500000 3.000000 0.000000
v -1.500000 3.500000 0.000000
v 1.500000 3.000000 0.000000
v 1.500000 3.500000 0.000000
v -1.500000 3.500000 0.400000
v -1.500000 3.000000 0.400000
v 1.500000 3.000000 0.400000
v 1.500000 3.500000 0.400000
vn -0.0000 -1.0000 -0.0000
vn -0.0000 -0.0000 -1.0000
vn -1.0000 -0.0000 -0.0000
vn -0.0000 -0.0000 1.0000
vn 1.0000 -0.0000 -0.0000
vn -0.0000 1.0000 -0.0000
vt 1.000000 0.000000
vt 0.000000 0.000000
vt 1.000000 1.000000
vt 0.000000 1.000000
s 0
usemtl stone
f 7/1/1 2/1/1 13/1/1 15/1/1
f 1/2/1 6/2/1 12/2/1 10/2/1
f 14/3/2 4/3/2 17/3/2 20/3/2
f 9/4/3 10/2/3 12/2/3 11/4/3
f 6/2/4 5/4/4 11/4/4 12/2/4
f 3/4/2 1/2/2 10/2/2 9/4/2
f 13/1/5 14/3/5 16/3/5 15/1/5
f 8/3/4 7/1/4 15/1/4 16/3/4
f 2/1/2 4/3/2 14/3/2 13/1/2
f 22/4/6 25/4/6 28/3/6 24/3/6 20/3/6 17/3/6 18/4/6 19/4/6
f 4/3/2 3/4/2 18/4/2 17/3/2
f 3/4/2 9/4/2 19/4/2 18/4/2
f 24/3/5 28/3/5 27/3/5 23/3/5
f 19/4/2 9/4/2 21/4/2 22/4/2
f 14/3/2 20/3/2 24/3/2 23/3/2
f 21/4/3 26/4/3 25/4/3 22/4/3
f 26/4/4 27/3/4 28/3/4 25/4/4
f 23/3/1 27/3/1 26/4/1 21/4/1 9/4/1 11/4/1 5/4/1 8/3/1 16/3/1 14/3/1
f 5/4/5 6/2/5 1/2/5 3/4/5
f 8/3/1 5/4/1 3/4/1 4/3/1
f 7/1/3 8/3/3 4/3/3 2/1/3
